<svg width="667" height="828" viewBox="0 0 667 828" fill="none" xmlns="http://www.w3.org/2000/svg">
<path d="M31.501 0H667V794.741L623.027 815.091C617.881 817.473 612.568 819.48 607.132 821.095L599.906 823.243C580.758 828.934 560.298 828.409 541.467 821.744V821.744C535.688 819.699 530.122 817.096 524.848 813.972L514.117 807.617C499.669 799.061 486.236 788.895 474.077 777.314L462.586 766.37L429.715 734.922L398.214 702.107L359.18 648.099L332.13 597.509L330.567 595.365C312.717 570.89 292.228 548.453 269.471 528.46V528.46V528.46C240.53 503.663 209.589 481.302 176.963 461.604L154.081 447.79L118.653 423.145C99.4313 409.774 81.9408 394.072 66.581 376.399L63.6005 372.97C54.0913 362.029 45.617 350.229 38.2863 337.723V337.723C27.6479 319.575 19.4997 300.077 14.061 279.755L10.272 265.597L7.75045 251.249C2.59327 221.902 0 192.163 0 162.366V162.366V162.366C0 134.637 2.8357 106.981 8.46284 79.8291L10.272 71.0994L31.501 0Z" fill="#00B1A9"/>
</svg>
