<svg width="124" height="29" viewBox="0 0 124 29" xmlns="http://www.w3.org/2000/svg">
<path d="M0.690002 7.63001V6.79001H6.27V9.25001C7.49 7.41001 8.94 6.49001 10.62 6.49001C11.24 6.49001 11.84 6.69001 12.42 7.09001C13 7.47001 13.48 8.19001 13.86 9.25001L11.19 10.69C10.91 9.87001 10.58 9.32001 10.2 9.04001C9.84 8.74001 9.45 8.59001 9.03 8.59001C8.59 8.59001 8.16 8.73001 7.74 9.01001C7.32 9.29001 6.89 9.81001 6.45 10.57V19.48C6.45 20.16 6.48 20.57 6.54 20.71C6.6 20.83 6.79 20.91 7.11 20.95L9.36 21.16V22H0.690002V21.16L2.34 20.95C2.66 20.91 2.85 20.83 2.91 20.71C2.97 20.57 3 20.16 3 19.48V9.31001C3 8.63001 2.97 8.23001 2.91 8.11001C2.85 7.97001 2.66 7.88001 2.34 7.84001L0.690002 7.63001Z"/>
<path d="M29.7009 21.25C29.3809 21.55 28.9909 21.8 28.5309 22C28.0909 22.2 27.5509 22.3 26.9109 22.3C26.0909 22.3 25.4009 22.12 24.8409 21.76C24.3009 21.4 23.9409 20.89 23.7609 20.23C23.1009 20.95 22.3709 21.48 21.5709 21.82C20.7909 22.14 19.9909 22.3 19.1709 22.3C17.7909 22.3 16.7609 21.92 16.0809 21.16C15.4009 20.38 15.0609 19.41 15.0609 18.25C15.0609 17.07 15.4909 16.12 16.3509 15.4C17.2109 14.66 18.7309 14.29 20.9109 14.29H23.6409V11.86C23.6409 10.2 23.4209 9.07001 22.9809 8.47001C22.5609 7.85001 21.9709 7.54001 21.2109 7.54001C20.7109 7.54001 20.2509 7.67001 19.8309 7.93001C19.4109 8.17001 19.1109 8.63001 18.9309 9.31001C18.7709 9.97001 18.8009 10.93 19.0209 12.19L15.7209 11.71C15.5609 10.79 15.6609 9.94001 16.0209 9.16001C16.4009 8.36001 17.0309 7.72001 17.9109 7.24001C18.7909 6.74001 19.9109 6.49001 21.2709 6.49001C22.8109 6.49001 24.0009 6.74001 24.8409 7.24001C25.6809 7.74001 26.2609 8.40001 26.5809 9.22001C26.9209 10.04 27.0909 10.92 27.0909 11.86V18.79C27.0909 19.81 27.1809 20.45 27.3609 20.71C27.5409 20.97 27.7409 21.1 27.9609 21.1C28.3209 21.1 28.7209 20.89 29.1609 20.47L29.7009 21.25ZM20.4909 20.71C21.0109 20.71 21.5209 20.58 22.0209 20.32C22.5409 20.04 23.0809 19.53 23.6409 18.79V15.34H21.3909C20.4109 15.34 19.7009 15.57 19.2609 16.03C18.8209 16.49 18.6009 17.21 18.6009 18.19C18.6009 18.99 18.7609 19.61 19.0809 20.05C19.4009 20.49 19.8709 20.71 20.4909 20.71Z"/>
<path d="M45.1835 23.56C45.1835 25.2 44.5635 26.46 43.3235 27.34C42.1035 28.24 40.4235 28.69 38.2835 28.69C35.9235 28.69 34.1635 28.3 33.0035 27.52C31.8435 26.76 31.2135 25.81 31.1135 24.67L34.3235 24.16C34.2435 25.22 34.4935 26.06 35.0735 26.68C35.6735 27.32 36.7435 27.64 38.2835 27.64C39.7235 27.64 40.8835 27.37 41.7635 26.83C42.6635 26.29 43.1135 25.51 43.1135 24.49C43.1135 23.77 42.8435 23.22 42.3035 22.84C41.7835 22.48 40.9135 22.3 39.6935 22.3H36.2735C35.2135 22.3 34.3735 22.15 33.7535 21.85C33.1535 21.55 32.7335 21.18 32.4935 20.74C32.2535 20.28 32.1335 19.81 32.1335 19.33C32.1335 18.75 32.2935 18.18 32.6135 17.62C32.9335 17.04 33.4835 16.47 34.2635 15.91C33.4035 15.53 32.7035 14.97 32.1635 14.23C31.6235 13.49 31.3535 12.57 31.3535 11.47C31.3535 10.35 31.6135 9.43001 32.1335 8.71001C32.6535 7.97001 33.3535 7.42001 34.2335 7.06001C35.1135 6.68001 36.0935 6.49001 37.1735 6.49001H37.6835C38.8435 6.49001 39.8435 6.68001 40.6835 7.06001L45.0035 4.93001L45.3635 7.87001H41.9435C42.4235 8.29001 42.7935 8.80001 43.0535 9.40001C43.3335 9.98001 43.4735 10.67 43.4735 11.47C43.4735 12.55 43.2135 13.46 42.6935 14.2C42.1735 14.94 41.4735 15.5 40.5935 15.88C39.7335 16.26 38.7635 16.45 37.6835 16.45H37.1735C36.5735 16.45 35.9835 16.39 35.4035 16.27C34.9035 16.61 34.5535 16.94 34.3535 17.26C34.1735 17.56 34.0835 17.85 34.0835 18.13C34.0835 18.45 34.2235 18.69 34.5035 18.85C34.8035 19.01 35.2835 19.09 35.9435 19.09H39.8435C41.5635 19.09 42.8835 19.48 43.8035 20.26C44.7235 21.02 45.1835 22.12 45.1835 23.56ZM37.6835 15.4C38.3235 15.4 38.8735 15.12 39.3335 14.56C39.7935 14 40.0235 12.97 40.0235 11.47C40.0235 9.97001 39.7935 8.94001 39.3335 8.38001C38.8735 7.82001 38.3235 7.54001 37.6835 7.54001H37.1735C36.5335 7.54001 35.9735 7.82001 35.4935 8.38001C35.0335 8.94001 34.8035 9.97001 34.8035 11.47C34.8035 12.97 35.0335 14 35.4935 14.56C35.9735 15.12 36.5335 15.4 37.1735 15.4H37.6835Z"/>
<path d="M61.8103 21.25C61.4903 21.55 61.1003 21.8 60.6403 22C60.2003 22.2 59.6603 22.3 59.0203 22.3C58.2003 22.3 57.5103 22.12 56.9503 21.76C56.4103 21.4 56.0503 20.89 55.8703 20.23C55.2103 20.95 54.4803 21.48 53.6803 21.82C52.9003 22.14 52.1003 22.3 51.2803 22.3C49.9003 22.3 48.8703 21.92 48.1903 21.16C47.5103 20.38 47.1703 19.41 47.1703 18.25C47.1703 17.07 47.6003 16.12 48.4603 15.4C49.3203 14.66 50.8403 14.29 53.0203 14.29H55.7503V11.86C55.7503 10.2 55.5303 9.07001 55.0903 8.47001C54.6703 7.85001 54.0803 7.54001 53.3203 7.54001C52.8203 7.54001 52.3603 7.67001 51.9403 7.93001C51.5203 8.17001 51.2203 8.63001 51.0403 9.31001C50.8803 9.97001 50.9103 10.93 51.1303 12.19L47.8303 11.71C47.6703 10.79 47.7703 9.94001 48.1303 9.16001C48.5103 8.36001 49.1403 7.72001 50.0203 7.24001C50.9003 6.74001 52.0203 6.49001 53.3803 6.49001C54.9203 6.49001 56.1103 6.74001 56.9503 7.24001C57.7903 7.74001 58.3703 8.40001 58.6903 9.22001C59.0303 10.04 59.2003 10.92 59.2003 11.86V18.79C59.2003 19.81 59.2903 20.45 59.4703 20.71C59.6503 20.97 59.8503 21.1 60.0703 21.1C60.4303 21.1 60.8303 20.89 61.2703 20.47L61.8103 21.25ZM52.6003 20.71C53.1203 20.71 53.6303 20.58 54.1303 20.32C54.6503 20.04 55.1903 19.53 55.7503 18.79V15.34H53.5003C52.5203 15.34 51.8103 15.57 51.3703 16.03C50.9303 16.49 50.7103 17.21 50.7103 18.19C50.7103 18.99 50.8703 19.61 51.1903 20.05C51.5103 20.49 51.9803 20.71 52.6003 20.71Z"/>
<path d="M73.3329 18.88C73.0729 20.1 72.5729 20.98 71.8329 21.52C71.1129 22.04 70.2329 22.3 69.1929 22.3C68.1329 22.3 67.2629 22.07 66.5829 21.61C65.9029 21.13 65.4029 20.5 65.0829 19.72C64.7629 18.94 64.6029 18.11 64.6029 17.23V9.31001C64.6029 8.63001 64.5729 8.23001 64.5129 8.11001C64.4529 7.97001 64.2629 7.88001 63.9429 7.84001L62.2929 7.63001V6.79001H64.6029V3.31001L68.0529 2.62001V6.79001H72.8529V7.84001H68.0529V17.83C68.0529 19.11 68.2129 20 68.5329 20.5C68.8529 20.98 69.2629 21.22 69.7629 21.22C70.2829 21.22 70.6829 21.02 70.9629 20.62C71.2629 20.22 71.4529 19.49 71.5329 18.43L73.3329 18.88Z"/>
<path d="M89.7888 21.25C89.4688 21.55 89.0788 21.8 88.6188 22C88.1788 22.2 87.6388 22.3 86.9988 22.3C86.1788 22.3 85.4888 22.12 84.9288 21.76C84.3888 21.4 84.0288 20.89 83.8488 20.23C83.1888 20.95 82.4588 21.48 81.6588 21.82C80.8788 22.14 80.0788 22.3 79.2588 22.3C77.8788 22.3 76.8488 21.92 76.1688 21.16C75.4888 20.38 75.1488 19.41 75.1488 18.25C75.1488 17.07 75.5788 16.12 76.4388 15.4C77.2988 14.66 78.8188 14.29 80.9988 14.29H83.7288V11.86C83.7288 10.2 83.5088 9.07001 83.0688 8.47001C82.6488 7.85001 82.0588 7.54001 81.2988 7.54001C80.7988 7.54001 80.3388 7.67001 79.9188 7.93001C79.4988 8.17001 79.1988 8.63001 79.0188 9.31001C78.8588 9.97001 78.8888 10.93 79.1088 12.19L75.8088 11.71C75.6488 10.79 75.7488 9.94001 76.1088 9.16001C76.4888 8.36001 77.1188 7.72001 77.9988 7.24001C78.8788 6.74001 79.9988 6.49001 81.3588 6.49001C82.8988 6.49001 84.0888 6.74001 84.9288 7.24001C85.7688 7.74001 86.3488 8.40001 86.6688 9.22001C87.0088 10.04 87.1788 10.92 87.1788 11.86V18.79C87.1788 19.81 87.2688 20.45 87.4488 20.71C87.6288 20.97 87.8288 21.1 88.0488 21.1C88.4088 21.1 88.8088 20.89 89.2488 20.47L89.7888 21.25ZM80.5788 20.71C81.0988 20.71 81.6088 20.58 82.1088 20.32C82.6288 20.04 83.1688 19.53 83.7288 18.79V15.34H81.4788C80.4988 15.34 79.7888 15.57 79.3488 16.03C78.9088 16.49 78.6888 17.21 78.6888 18.19C78.6888 18.99 78.8488 19.61 79.1688 20.05C79.4888 20.49 79.9588 20.71 80.5788 20.71Z"/>
<path d="M94.6514 4.21001C94.0314 4.21001 93.5314 4.02001 93.1514 3.64001C92.7714 3.24001 92.5814 2.73001 92.5814 2.11001C92.5814 1.49001 92.7714 0.990009 93.1514 0.610008C93.5314 0.230008 94.0314 0.0400085 94.6514 0.0400085C95.2514 0.0400085 95.7514 0.230008 96.1514 0.610008C96.5514 0.990009 96.7514 1.49001 96.7514 2.11001C96.7514 2.73001 96.5514 3.24001 96.1514 3.64001C95.7514 4.02001 95.2514 4.21001 94.6514 4.21001ZM90.6314 7.63001V6.79001H96.3914V19.48C96.3914 20.16 96.4214 20.57 96.4814 20.71C96.5414 20.83 96.7314 20.91 97.0514 20.95L98.7014 21.16V22H90.6314V21.16L92.2814 20.95C92.6014 20.91 92.7914 20.83 92.8514 20.71C92.9114 20.57 92.9414 20.16 92.9414 19.48V9.31001C92.9414 8.63001 92.9114 8.23001 92.8514 8.11001C92.7914 7.97001 92.6014 7.88001 92.2814 7.84001L90.6314 7.63001Z"/>
<path d="M117.53 21.16V22H109.46V21.16L111.11 20.95C111.43 20.91 111.62 20.83 111.68 20.71C111.74 20.57 111.77 20.16 111.77 19.48V11.92C111.77 10.54 111.56 9.54001 111.14 8.92001C110.74 8.28001 110.14 7.96001 109.34 7.96001C109 7.96001 108.6 8.05001 108.14 8.23001C107.7 8.39001 107.25 8.69001 106.79 9.13001C106.35 9.57001 105.96 10.22 105.62 11.08V19.48C105.62 20.16 105.65 20.57 105.71 20.71C105.77 20.83 105.96 20.91 106.28 20.95L107.93 21.16V22H99.8599V21.16L101.51 20.95C101.83 20.91 102.02 20.83 102.08 20.71C102.14 20.57 102.17 20.16 102.17 19.48V9.31001C102.17 8.63001 102.14 8.23001 102.08 8.11001C102.02 7.97001 101.83 7.88001 101.51 7.84001L99.8599 7.63001V6.79001H105.44V9.43001C106.02 8.41001 106.76 7.67001 107.66 7.21001C108.58 6.73001 109.5 6.49001 110.42 6.49001C111.9 6.49001 113.07 6.96001 113.93 7.90001C114.79 8.84001 115.22 10.17 115.22 11.89V19.48C115.22 20.16 115.25 20.57 115.31 20.71C115.37 20.83 115.56 20.91 115.88 20.95L117.53 21.16Z"/>
<path d="M121.671 22.3C121.051 22.3 120.541 22.11 120.141 21.73C119.761 21.33 119.571 20.81 119.571 20.17C119.571 19.53 119.761 19.02 120.141 18.64C120.541 18.26 121.051 18.07 121.671 18.07C122.291 18.07 122.801 18.26 123.201 18.64C123.601 19.02 123.801 19.53 123.801 20.17C123.801 20.81 123.601 21.33 123.201 21.73C122.801 22.11 122.291 22.3 121.671 22.3Z"/>
</svg>
